<svg xmlns="http://www.w3.org/2000/svg" viewBox="0 0 198.42 61.15"><defs><style>.cls-1{fill:#5b7303;}.cls-2{fill:#f24131;}.cls-3{fill:#f1b808;}</style></defs><title>nutribit</title><g id="Layer_2" data-name="Layer 2"><g id="Layer_1-2" data-name="Layer 1"><path class="cls-1" d="M.44,58.67a.35.35,0,0,1-.07-.2.22.22,0,0,1,.11-.17.22.22,0,0,1,.17,0,.26.26,0,0,1,.17.09,2,2,0,0,0,.58.5,1.66,1.66,0,0,0,.8.19,1.37,1.37,0,0,0,.49-.09.86.86,0,0,0,.4-.25.61.61,0,0,0,.16-.44.6.6,0,0,0-.16-.44,1.13,1.13,0,0,0-.41-.27,3.67,3.67,0,0,0-.53-.16l-.58-.18a2.36,2.36,0,0,1-.5-.26,1.37,1.37,0,0,1-.35-.37A1,1,0,0,1,.59,56a1.09,1.09,0,0,1,.2-.65,1.33,1.33,0,0,1,.55-.44,1.86,1.86,0,0,1,.79-.16,2.8,2.8,0,0,1,.48,0,2.34,2.34,0,0,1,.5.19,1.51,1.51,0,0,1,.44.36.25.25,0,0,1,.08.19.26.26,0,0,1-.09.18.28.28,0,0,1-.16,0,.18.18,0,0,1-.15-.07,1.32,1.32,0,0,0-.51-.36,1.44,1.44,0,0,0-.62-.13,1.28,1.28,0,0,0-.48.09.9.9,0,0,0-.38.25.63.63,0,0,0-.15.44.68.68,0,0,0,.18.41,1.27,1.27,0,0,0,.44.27,6.1,6.1,0,0,0,.6.19,4.26,4.26,0,0,1,.54.17,1.54,1.54,0,0,1,.46.24,1.07,1.07,0,0,1,.44.92,1,1,0,0,1-.22.67,1.36,1.36,0,0,1-.58.44,2,2,0,0,1-.8.15,2.44,2.44,0,0,1-.92-.19A1.93,1.93,0,0,1,.44,58.67Z"/><path class="cls-1" d="M4.54,54.9H6.6a.22.22,0,0,1,.17.07.24.24,0,0,1,.07.18.21.21,0,0,1-.07.17.22.22,0,0,1-.17.07H4.54a.24.24,0,0,1-.18-.07.23.23,0,0,1-.07-.17.24.24,0,0,1,.25-.25Zm.91-1.24a.22.22,0,0,1,.19.08.24.24,0,0,1,.07.18v4.43a.87.87,0,0,0,.07.37.33.33,0,0,0,.17.16.52.52,0,0,0,.21,0l.13,0a.27.27,0,0,1,.13,0,.2.2,0,0,1,.14.06.25.25,0,0,1,.05.16.22.22,0,0,1-.14.2.58.58,0,0,1-.33.09l-.24,0a1,1,0,0,1-.33-.09A.67.67,0,0,1,5.3,59a1.24,1.24,0,0,1-.12-.61V53.92a.25.25,0,0,1,.08-.18A.22.22,0,0,1,5.45,53.66Z"/><path class="cls-1" d="M11.52,54.88a.25.25,0,0,1,.18.08.27.27,0,0,1,.08.19v4a.27.27,0,0,1-.08.19.25.25,0,0,1-.18.08.26.26,0,0,1-.19-.08.27.27,0,0,1-.08-.19v-1L11.4,58a1.09,1.09,0,0,1-.14.51,1.78,1.78,0,0,1-.37.47,1.92,1.92,0,0,1-.56.36,1.81,1.81,0,0,1-.69.14,1.94,1.94,0,0,1-1.07-.31,2,2,0,0,1-.74-.85,2.66,2.66,0,0,1-.27-1.21,2.6,2.6,0,0,1,.27-1.21,2.1,2.1,0,0,1,.74-.82,1.9,1.9,0,0,1,1.06-.3,1.87,1.87,0,0,1,.71.13,2,2,0,0,1,.58.36,1.74,1.74,0,0,1,.38.52,1.51,1.51,0,0,1,.14.62l-.19-.13V55.15a.27.27,0,0,1,.08-.19A.26.26,0,0,1,11.52,54.88ZM9.68,59a1.47,1.47,0,0,0,.83-.24,1.7,1.7,0,0,0,.57-.67,2.15,2.15,0,0,0,.21-1,2,2,0,0,0-.21-.93,1.67,1.67,0,0,0-.57-.66,1.4,1.4,0,0,0-.83-.25,1.46,1.46,0,0,0-.82.24,1.59,1.59,0,0,0-.58.65,2.21,2.21,0,0,0-.2,1,2.29,2.29,0,0,0,.2,1,1.7,1.7,0,0,0,.57.67A1.47,1.47,0,0,0,9.68,59Z"/><path class="cls-1" d="M16.52,54.8a.26.26,0,0,1,.19.08.29.29,0,0,1,.08.19V59a2.37,2.37,0,0,1-.29,1.2,1.84,1.84,0,0,1-.75.74,2.28,2.28,0,0,1-1.09.25,3.13,3.13,0,0,1-.7-.08,1.81,1.81,0,0,1-.52-.22.39.39,0,0,1-.16-.15.17.17,0,0,1,0-.18.25.25,0,0,1,.14-.17.25.25,0,0,1,.19,0l.43.19a1.78,1.78,0,0,0,1.48-.09,1.34,1.34,0,0,0,.55-.58,2,2,0,0,0,.2-.92v-.63l.06.21A1.71,1.71,0,0,1,16,59a2,2,0,0,1-.56.33,1.85,1.85,0,0,1-.67.12,1.65,1.65,0,0,1-.87-.22,1.22,1.22,0,0,1-.52-.6,2.21,2.21,0,0,1-.17-.89v-2.7a.34.34,0,0,1,.07-.19.28.28,0,0,1,.2-.08.27.27,0,0,1,.19.08.28.28,0,0,1,.07.19V57.7a1.49,1.49,0,0,0,.27.95,1.07,1.07,0,0,0,.88.33,1.43,1.43,0,0,0,.7-.18,1.59,1.59,0,0,0,.52-.48,1.09,1.09,0,0,0,.2-.62V55.07a.28.28,0,0,1,.07-.19A.27.27,0,0,1,16.52,54.8Z"/><path class="cls-1" d="M20.83,54.21a.43.43,0,0,1-.28-.08.32.32,0,0,1-.09-.24V53.8a.27.27,0,0,1,.1-.24.38.38,0,0,1,.27-.09.34.34,0,0,1,.26.09.27.27,0,0,1,.1.24v.09a.3.3,0,0,1-.1.24A.4.4,0,0,1,20.83,54.21Zm.26,4.91a.27.27,0,0,1-.08.19.25.25,0,0,1-.18.08.26.26,0,0,1-.19-.08.27.27,0,0,1-.08-.19v-4a.29.29,0,0,1,.08-.19.26.26,0,0,1,.19-.08.25.25,0,0,1,.18.08.29.29,0,0,1,.08.19Z"/><path class="cls-1" d="M24.59,54.78a1.6,1.6,0,0,1,.93.23,1.35,1.35,0,0,1,.5.63,2.35,2.35,0,0,1,.16.89v2.59a.27.27,0,0,1-.27.27.26.26,0,0,1-.19-.08.26.26,0,0,1-.07-.19V56.56a1.71,1.71,0,0,0-.12-.65.93.93,0,0,0-.37-.46,1.16,1.16,0,0,0-.68-.18,1.48,1.48,0,0,0-.72.18,1.46,1.46,0,0,0-.55.46,1,1,0,0,0-.22.65v2.56a.24.24,0,0,1-.08.19.25.25,0,0,1-.18.08.24.24,0,0,1-.19-.08.26.26,0,0,1-.07-.19V55.17a.24.24,0,0,1,.07-.18.27.27,0,0,1,.38,0,.24.24,0,0,1,.07.18v.74l-.2.32a1.09,1.09,0,0,1,.18-.54,2.06,2.06,0,0,1,.42-.47A1.78,1.78,0,0,1,24,54.9,1.76,1.76,0,0,1,24.59,54.78Z"/><path class="cls-1" d="M27.31,58.67a.35.35,0,0,1-.07-.2.27.27,0,0,1,.27-.22.26.26,0,0,1,.17.09,2.14,2.14,0,0,0,.58.5,1.73,1.73,0,0,0,.81.19,1.41,1.41,0,0,0,.49-.09,1,1,0,0,0,.4-.25.61.61,0,0,0,.16-.44.6.6,0,0,0-.16-.44,1.22,1.22,0,0,0-.41-.27,4.64,4.64,0,0,0-.53-.16l-.59-.18a2.27,2.27,0,0,1-.49-.26,1.23,1.23,0,0,1-.35-.37,1.17,1.17,0,0,1,.07-1.19,1.27,1.27,0,0,1,.55-.44,1.8,1.8,0,0,1,.79-.16,2.69,2.69,0,0,1,.47,0A2.42,2.42,0,0,1,30,55a1.66,1.66,0,0,1,.44.36.29.29,0,0,1,.08.19.26.26,0,0,1-.09.18.3.3,0,0,1-.16,0,.19.19,0,0,1-.16-.07,1.36,1.36,0,0,0-.5-.36,1.45,1.45,0,0,0-.63-.13,1.28,1.28,0,0,0-.48.09.87.87,0,0,0-.37.25A.63.63,0,0,0,28,56a.58.58,0,0,0,.18.41,1.22,1.22,0,0,0,.43.27,6.1,6.1,0,0,0,.6.19,5,5,0,0,1,.55.17,1.83,1.83,0,0,1,.46.24,1.12,1.12,0,0,1,.31.37,1.15,1.15,0,0,1,.12.55,1.07,1.07,0,0,1-.21.67,1.42,1.42,0,0,1-.58.44,2.07,2.07,0,0,1-.8.15,2.49,2.49,0,0,1-.93-.19A1.9,1.9,0,0,1,27.31,58.67Z"/><path class="cls-1" d="M33.84,54.85a2,2,0,0,1,1.06.29,2.14,2.14,0,0,1,.74.81,2.76,2.76,0,0,1,0,2.38,2.1,2.1,0,0,1-.74.82,1.89,1.89,0,0,1-1,.3,1.92,1.92,0,0,1-.59-.09,3,3,0,0,1-.51-.25,2.4,2.4,0,0,1-.4-.38,1.72,1.72,0,0,1-.28-.47l.16-.12v2.75a.25.25,0,0,1-.08.18.27.27,0,0,1-.38,0,.24.24,0,0,1-.07-.18V55.14a.29.29,0,0,1,.07-.2.24.24,0,0,1,.19-.08.26.26,0,0,1,.19.08.3.3,0,0,1,.08.2v1L32.1,56a1.64,1.64,0,0,1,.26-.49,2,2,0,0,1,.4-.37,1.81,1.81,0,0,1,.51-.23A1.79,1.79,0,0,1,33.84,54.85Zm0,.49a1.55,1.55,0,0,0-.84.23,1.68,1.68,0,0,0-.57.64,2.16,2.16,0,0,0,0,1.86,1.58,1.58,0,0,0,.57.65,1.48,1.48,0,0,0,.84.24,1.44,1.44,0,0,0,.82-.24,1.58,1.58,0,0,0,.57-.65,2.16,2.16,0,0,0,0-1.86,1.68,1.68,0,0,0-.57-.64A1.51,1.51,0,0,0,33.8,55.34Z"/><path class="cls-1" d="M37.29,54.21a.43.43,0,0,1-.28-.08.32.32,0,0,1-.09-.24V53.8a.27.27,0,0,1,.1-.24.41.41,0,0,1,.28-.09.37.37,0,0,1,.26.09.3.3,0,0,1,.09.24v.09a.32.32,0,0,1-.09.24A.46.46,0,0,1,37.29,54.21Zm.26,4.91a.27.27,0,0,1-.08.19.25.25,0,0,1-.18.08.26.26,0,0,1-.19-.08.27.27,0,0,1-.08-.19v-4a.29.29,0,0,1,.08-.19.26.26,0,0,1,.19-.08.27.27,0,0,1,.19.08.28.28,0,0,1,.07.19Z"/><path class="cls-1" d="M39.19,59.39a.24.24,0,0,1-.19-.08.26.26,0,0,1-.07-.19V55.17A.24.24,0,0,1,39,55a.27.27,0,0,1,.38,0,.25.25,0,0,1,.08.18V56.5l-.14,0a2,2,0,0,1,.16-.61,2,2,0,0,1,.35-.56,1.6,1.6,0,0,1,.52-.41,1.39,1.39,0,0,1,.68-.16.81.81,0,0,1,.31.06.23.23,0,0,1,.15.22.26.26,0,0,1-.07.2.22.22,0,0,1-.17.07.38.38,0,0,1-.17,0,.54.54,0,0,0-.24,0,.93.93,0,0,0-.49.15,1.67,1.67,0,0,0-.45.39,2.06,2.06,0,0,0-.33.55,1.88,1.88,0,0,0-.11.62v2.17a.27.27,0,0,1-.08.19A.29.29,0,0,1,39.19,59.39Z"/><path class="cls-1" d="M44.16,59.48a2.38,2.38,0,0,1-1.2-.3,2.1,2.1,0,0,1-.81-.81,2.46,2.46,0,0,1-.29-1.21,2.55,2.55,0,0,1,.3-1.28,2.15,2.15,0,0,1,.76-.82,1.93,1.93,0,0,1,1-.28,2.15,2.15,0,0,1,.75.13,1.93,1.93,0,0,1,.65.41,2,2,0,0,1,.46.66,2.38,2.38,0,0,1,.19.89.31.31,0,0,1-.09.19.24.24,0,0,1-.18.07H42.17l-.1-.48h3.47l-.12.11v-.18a1.27,1.27,0,0,0-.26-.7,1.41,1.41,0,0,0-.56-.44,1.57,1.57,0,0,0-1.22,0,1.45,1.45,0,0,0-.5.33,1.86,1.86,0,0,0-.37.58,2.23,2.23,0,0,0-.14.82,2,2,0,0,0,.22,1,1.64,1.64,0,0,0,.61.67,1.81,1.81,0,0,0,.95.24,1.6,1.6,0,0,0,.56-.09,1.47,1.47,0,0,0,.43-.23,1.78,1.78,0,0,0,.31-.3.28.28,0,0,1,.19-.08.21.21,0,0,1,.16.07.24.24,0,0,1,.07.16.23.23,0,0,1-.09.18,2.39,2.39,0,0,1-.69.55A1.84,1.84,0,0,1,44.16,59.48Z"/><path class="cls-1" d="M50.8,52.86a.27.27,0,0,1,.27.27v6a.27.27,0,0,1-.46.19.26.26,0,0,1-.07-.19v-1l.15-.12a1.33,1.33,0,0,1-.13.52,2,2,0,0,1-.94.86,1.66,1.66,0,0,1-.7.15,2,2,0,0,1-1.06-.31,2.23,2.23,0,0,1-.74-.84,2.63,2.63,0,0,1-.28-1.21,2.59,2.59,0,0,1,.28-1.2,2.09,2.09,0,0,1,.74-.84,1.9,1.9,0,0,1,1.06-.3,1.72,1.72,0,0,1,.68.13,2,2,0,0,1,.58.36,1.81,1.81,0,0,1,.4.52,1.37,1.37,0,0,1,.14.62l-.18-.13V53.13a.26.26,0,0,1,.07-.19A.27.27,0,0,1,50.8,52.86ZM49,59a1.45,1.45,0,0,0,.83-.24,1.67,1.67,0,0,0,.57-.66,2.38,2.38,0,0,0,0-1.91,1.67,1.67,0,0,0-.57-.66,1.47,1.47,0,0,0-.83-.24,1.49,1.49,0,0,0-.83.24,1.67,1.67,0,0,0-.57.66,2.25,2.25,0,0,0,0,1.9,1.64,1.64,0,0,0,.57.67A1.49,1.49,0,0,0,49,59Z"/><path class="cls-1" d="M53.16,59.46a.88.88,0,0,1-.14.46,1.38,1.38,0,0,1-.35.37.66.66,0,0,1-.4.15.24.24,0,0,1-.13,0,.17.17,0,0,1-.07-.16c0-.09,0-.13.09-.14a.65.65,0,0,0,.2-.09.51.51,0,0,0,.23-.17.36.36,0,0,0,.08-.25.26.26,0,0,0-.06-.18.25.25,0,0,0-.16-.06l-.12,0-.12,0-.08-.09a.21.21,0,0,1,0-.14.37.37,0,0,1,.16-.26.58.58,0,0,1,.34-.11A.47.47,0,0,1,53,59,.67.67,0,0,1,53.16,59.46Z"/><path class="cls-1" d="M57.15,59.12a.27.27,0,0,1-.08.19.25.25,0,0,1-.18.08.26.26,0,0,1-.19-.08.27.27,0,0,1-.08-.19v-6a.27.27,0,0,1,.46-.19.26.26,0,0,1,.07.19Z"/><path class="cls-1" d="M58.84,54.21a.41.41,0,0,1-.27-.08.3.3,0,0,1-.1-.24V53.8a.3.3,0,0,1,.1-.24.41.41,0,0,1,.28-.09.36.36,0,0,1,.26.09.3.3,0,0,1,.1.24v.09a.33.33,0,0,1-.1.24A.41.41,0,0,1,58.84,54.21Zm.27,4.91a.27.27,0,0,1-.46.19.26.26,0,0,1-.07-.19v-4a.28.28,0,0,1,.07-.19.27.27,0,0,1,.19-.08.26.26,0,0,1,.19.08.29.29,0,0,1,.08.19Z"/><path class="cls-1" d="M60.38,54.78a.3.3,0,0,1,.14,0,.22.22,0,0,1,.1.13l1.55,3.67-.12.07L63.63,55a.25.25,0,0,1,.26-.17.25.25,0,0,1,.16.06.17.17,0,0,1,.08.16.22.22,0,0,1,0,.09.14.14,0,0,0,0,.06l-1.73,4.06a.27.27,0,0,1-.24.17.28.28,0,0,1-.15,0,.28.28,0,0,1-.11-.13l-1.74-4.06,0,0s0,0,0-.07a.29.29,0,0,1,.08-.18A.25.25,0,0,1,60.38,54.78Z"/><path class="cls-1" d="M67.14,59.48a2.38,2.38,0,0,1-1.2-.3,2,2,0,0,1-.81-.81,2.46,2.46,0,0,1-.29-1.21,2.66,2.66,0,0,1,.29-1.28,2.26,2.26,0,0,1,.77-.82,1.92,1.92,0,0,1,1-.28,2.21,2.21,0,0,1,.76.13,1.93,1.93,0,0,1,.65.41,2.11,2.11,0,0,1,.46.66,2.6,2.6,0,0,1,.19.89.31.31,0,0,1-.09.19.26.26,0,0,1-.19.07H65.15L65,56.65h3.48l-.12.11v-.18a1.27,1.27,0,0,0-.26-.7,1.48,1.48,0,0,0-.56-.44,1.6,1.6,0,0,0-.68-.15,1.55,1.55,0,0,0-.54.1,1.36,1.36,0,0,0-.5.33,1.86,1.86,0,0,0-.37.58,2.23,2.23,0,0,0-.14.82,2.14,2.14,0,0,0,.21,1,1.71,1.71,0,0,0,.61.67,1.85,1.85,0,0,0,1,.24,1.64,1.64,0,0,0,.56-.09,1.47,1.47,0,0,0,.43-.23,2.23,2.23,0,0,0,.31-.3.26.26,0,0,1,.19-.08.21.21,0,0,1,.16.07.23.23,0,0,1,0,.34,2.22,2.22,0,0,1-.68.55A1.87,1.87,0,0,1,67.14,59.48Z"/><path class="cls-1" d="M74.55,54.85a1.62,1.62,0,0,1,.9.23,1.48,1.48,0,0,1,.5.65,2.37,2.37,0,0,1,.17.9v2.49a.27.27,0,0,1-.08.19.29.29,0,0,1-.19.08.24.24,0,0,1-.19-.08.26.26,0,0,1-.07-.19V56.63a1.88,1.88,0,0,0-.11-.65,1.06,1.06,0,0,0-.36-.47,1.2,1.2,0,0,0-.66-.17,1.52,1.52,0,0,0-1.24.64,1.14,1.14,0,0,0-.2.65v2.49a.27.27,0,0,1-.08.19.25.25,0,0,1-.18.08.26.26,0,0,1-.2-.08.32.32,0,0,1-.07-.19v-6a.27.27,0,0,1,.08-.19.26.26,0,0,1,.19-.08.27.27,0,0,1,.19.08.26.26,0,0,1,.07.19V56l-.2.31a1.18,1.18,0,0,1,.17-.53,2,2,0,0,1,.4-.47,1.8,1.8,0,0,1,.55-.32A1.62,1.62,0,0,1,74.55,54.85Z"/><path class="cls-1" d="M79.54,59.48a2.32,2.32,0,0,1-1.2-.3,2,2,0,0,1-.81-.81,2.36,2.36,0,0,1-.29-1.21,2.55,2.55,0,0,1,.29-1.28,2.18,2.18,0,0,1,.77-.82,1.89,1.89,0,0,1,1-.28,2.11,2.11,0,0,1,.75.13,2,2,0,0,1,.66.41,1.93,1.93,0,0,1,.45.66,2.2,2.2,0,0,1,.19.89.26.26,0,0,1-.08.19.28.28,0,0,1-.19.07H77.54l-.1-.48h3.47l-.11.11v-.18a1.28,1.28,0,0,0-.27-.7,1.38,1.38,0,0,0-.55-.44,1.64,1.64,0,0,0-.68-.15,1.47,1.47,0,0,0-.54.1,1.4,1.4,0,0,0-.51.33,1.68,1.68,0,0,0-.36.58,2,2,0,0,0-.14.82,2.14,2.14,0,0,0,.21,1,1.64,1.64,0,0,0,.61.67,1.85,1.85,0,0,0,1,.24,1.59,1.59,0,0,0,.55-.09,1.53,1.53,0,0,0,.44-.23,2.12,2.12,0,0,0,.3-.3.29.29,0,0,1,.2-.08.18.18,0,0,1,.15.07.2.2,0,0,1,.07.16.23.23,0,0,1-.09.18,2.27,2.27,0,0,1-.69.55A1.83,1.83,0,0,1,79.54,59.48Z"/><path class="cls-1" d="M86.21,54.88a.26.26,0,0,1,.19.08.27.27,0,0,1,.08.19v4a.27.27,0,0,1-.08.19.29.29,0,0,1-.19.08.26.26,0,0,1-.19-.08.26.26,0,0,1-.07-.19v-1L86.1,58a1.09,1.09,0,0,1-.14.51,2,2,0,0,1-.37.47,1.92,1.92,0,0,1-.56.36,1.82,1.82,0,0,1-.7.14,2,2,0,0,1-1.07-.31,2.19,2.19,0,0,1-.74-.85,2.66,2.66,0,0,1-.27-1.21,2.49,2.49,0,0,1,.28-1.21,2,2,0,0,1,.74-.82,1.89,1.89,0,0,1,1-.3,1.83,1.83,0,0,1,.71.13,1.89,1.89,0,0,1,.58.36,1.78,1.78,0,0,1,.39.52,1.5,1.5,0,0,1,.13.62L86,56.28V55.15A.26.26,0,0,1,86,55,.26.26,0,0,1,86.21,54.88ZM84.38,59a1.49,1.49,0,0,0,.83-.24,1.6,1.6,0,0,0,.56-.67,2.15,2.15,0,0,0,.21-1,2,2,0,0,0-.21-.93,1.58,1.58,0,0,0-.56-.66,1.42,1.42,0,0,0-.83-.25,1.49,1.49,0,0,0-.83.24,1.64,1.64,0,0,0-.57.65,2.08,2.08,0,0,0-.21,1,2.15,2.15,0,0,0,.21,1,1.7,1.7,0,0,0,.57.67A1.47,1.47,0,0,0,84.38,59Z"/><path class="cls-1" d="M88.44,59.12a.24.24,0,0,1-.08.19.25.25,0,0,1-.18.08.26.26,0,0,1-.19-.08.27.27,0,0,1-.08-.19v-6a.27.27,0,0,1,.08-.19.29.29,0,0,1,.19-.08.27.27,0,0,1,.19.08.26.26,0,0,1,.07.19Z"/><path class="cls-1" d="M89.57,54.9h2.06a.22.22,0,0,1,.17.07.24.24,0,0,1,.07.18.21.21,0,0,1-.07.17.22.22,0,0,1-.17.07H89.57a.24.24,0,0,1-.18-.07.23.23,0,0,1-.07-.17.24.24,0,0,1,.25-.25Zm.91-1.24a.22.22,0,0,1,.19.08.24.24,0,0,1,.07.18v4.43a.87.87,0,0,0,.07.37.33.33,0,0,0,.17.16.52.52,0,0,0,.21,0l.13,0a.27.27,0,0,1,.13,0,.2.2,0,0,1,.14.06.25.25,0,0,1,0,.16.22.22,0,0,1-.14.2.58.58,0,0,1-.33.09l-.24,0a1,1,0,0,1-.33-.09.74.74,0,0,1-.28-.3,1.38,1.38,0,0,1-.11-.61V53.92a.25.25,0,0,1,.08-.18A.22.22,0,0,1,90.48,53.66Z"/><path class="cls-1" d="M94.9,54.85a1.62,1.62,0,0,1,.9.23,1.43,1.43,0,0,1,.51.65,2.36,2.36,0,0,1,.16.9v2.49a.26.26,0,0,1-.07.19.29.29,0,0,1-.19.08.24.24,0,0,1-.19-.08.26.26,0,0,1-.07-.19V56.63a1.88,1.88,0,0,0-.11-.65,1.06,1.06,0,0,0-.36-.47,1.2,1.2,0,0,0-.66-.17,1.52,1.52,0,0,0-1.24.64,1.14,1.14,0,0,0-.2.65v2.49a.27.27,0,0,1-.08.19.27.27,0,0,1-.38,0,.26.26,0,0,1-.07-.19v-6a.27.27,0,0,1,.08-.19.25.25,0,0,1,.18-.08.26.26,0,0,1,.19.08.27.27,0,0,1,.08.19V56l-.2.31a1.18,1.18,0,0,1,.17-.53,2,2,0,0,1,.4-.47A1.69,1.69,0,0,1,94.3,55,1.61,1.61,0,0,1,94.9,54.85Z"/><path class="cls-1" d="M101.17,54.8a.26.26,0,0,1,.19.08.29.29,0,0,1,.08.19V59a2.47,2.47,0,0,1-.28,1.2,1.93,1.93,0,0,1-.76.74,2.28,2.28,0,0,1-1.09.25,3.13,3.13,0,0,1-.7-.08,1.81,1.81,0,0,1-.52-.22.39.39,0,0,1-.16-.15.17.17,0,0,1,0-.18.27.27,0,0,1,.14-.17.25.25,0,0,1,.19,0l.43.19a1.62,1.62,0,0,0,.64.12,1.59,1.59,0,0,0,.84-.21,1.29,1.29,0,0,0,.55-.58,2,2,0,0,0,.2-.92v-.63l.06.21a1.71,1.71,0,0,1-.37.49,2,2,0,0,1-.56.33,1.84,1.84,0,0,1-.66.12,1.66,1.66,0,0,1-.88-.22,1.27,1.27,0,0,1-.52-.6,2.21,2.21,0,0,1-.17-.89v-2.7a.34.34,0,0,1,.07-.19.28.28,0,0,1,.2-.08.26.26,0,0,1,.19.08.28.28,0,0,1,.07.19V57.7a1.49,1.49,0,0,0,.27.95,1.07,1.07,0,0,0,.88.33,1.43,1.43,0,0,0,.7-.18,1.59,1.59,0,0,0,.52-.48,1.09,1.09,0,0,0,.2-.62V55.07a.28.28,0,0,1,.07-.19A.27.27,0,0,1,101.17,54.8Z"/><path class="cls-2" d="M3.38,41a3.34,3.34,0,0,1-2.51-.9A3.56,3.56,0,0,1,0,37.54V4.05A3.76,3.76,0,0,1,.87,1.38,3,3,0,0,1,3.15.45,3.24,3.24,0,0,1,5.09.93a9.18,9.18,0,0,1,1.55,1.6l21.55,28H26.73V3.88a3.5,3.5,0,0,1,.87-2.53,3.34,3.34,0,0,1,2.51-.9,3.23,3.23,0,0,1,2.47.9,3.54,3.54,0,0,1,.85,2.53V37.65a3.64,3.64,0,0,1-.79,2.47,2.71,2.71,0,0,1-2.14.9,3.62,3.62,0,0,1-2.05-.5,7.8,7.8,0,0,1-1.66-1.63l-21.5-28H6.7V37.54a3.6,3.6,0,0,1-.85,2.58A3.23,3.23,0,0,1,3.38,41Z"/><path class="cls-2" d="M51.38,41.14a11.44,11.44,0,0,1-5.69-1.27,7.7,7.7,0,0,1-3.34-3.8,15.74,15.74,0,0,1-1.1-6.3V16.15a3.56,3.56,0,0,1,.9-2.67,3.57,3.57,0,0,1,2.59-.87,3.66,3.66,0,0,1,2.61.87,3.49,3.49,0,0,1,.93,2.67V29.88a6.65,6.65,0,0,0,1.19,4.34,4.66,4.66,0,0,0,3.77,1.4,6,6,0,0,0,4.61-1.94,7.26,7.26,0,0,0,1.8-5.15V16.15a3.56,3.56,0,0,1,.9-2.67,3.57,3.57,0,0,1,2.59-.87,3.68,3.68,0,0,1,2.62.87,3.49,3.49,0,0,1,.92,2.67V37.42q0,3.6-3.43,3.6a3.35,3.35,0,0,1-2.53-.92,3.7,3.7,0,0,1-.9-2.68V33.15l.79,1.68a9.43,9.43,0,0,1-9.23,6.31Z"/><path class="cls-2" d="M86.61,41.14A13.54,13.54,0,0,1,80.5,39.9a8,8,0,0,1-3.63-3.63,13.29,13.29,0,0,1-1.18-5.94v-12H72.76a2.88,2.88,0,0,1-2.08-.71A2.55,2.55,0,0,1,70,15.7a2.54,2.54,0,0,1,.73-2,3,3,0,0,1,2.08-.67h2.93V7.93a3.51,3.51,0,0,1,.93-2.64,3.6,3.6,0,0,1,2.61-.9,3.5,3.5,0,0,1,2.59.9,3.58,3.58,0,0,1,.9,2.64v5.13h6a3,3,0,0,1,2.08.67,2.54,2.54,0,0,1,.73,2,2.55,2.55,0,0,1-.73,1.94,2.88,2.88,0,0,1-2.08.71h-6V29.94A6,6,0,0,0,83.9,34a4.86,4.86,0,0,0,3.83,1.35,7.72,7.72,0,0,0,1.69-.17A9.68,9.68,0,0,1,90.71,35a1.32,1.32,0,0,1,1.13.42,3,3,0,0,1,.45,1.94,5,5,0,0,1-.37,2,2.12,2.12,0,0,1-1.32,1.21,15,15,0,0,1-1.91.42A13,13,0,0,1,86.61,41.14Z"/><path class="cls-2" d="M99.21,41a3.24,3.24,0,0,1-3.6-3.6V16.15a3.58,3.58,0,0,1,.9-2.64,4,4,0,0,1,5.06,0,3.58,3.58,0,0,1,.9,2.64V19.7h-.56a8.61,8.61,0,0,1,3.1-5.12,11.63,11.63,0,0,1,6.13-2.09,2.28,2.28,0,0,1,1.89.59,3.38,3.38,0,0,1,.81,2.17,3,3,0,0,1-.64,2.28,3.4,3.4,0,0,1-2.28,1l-1.24.11a8.17,8.17,0,0,0-5.18,2.11,6.83,6.83,0,0,0-1.74,5V37.42a3.7,3.7,0,0,1-.9,2.68A3.53,3.53,0,0,1,99.21,41Z"/><path class="cls-3" d="M121.16,7.43a4.41,4.41,0,0,1-3.07-1A3.47,3.47,0,0,1,117,3.71,3.46,3.46,0,0,1,118.09,1a5.42,5.42,0,0,1,6.16,0,3.47,3.47,0,0,1,1.07,2.75,3.48,3.48,0,0,1-1.07,2.73A4.38,4.38,0,0,1,121.16,7.43Z"/><path class="cls-2" d="M121.16,41a3.29,3.29,0,0,1-2.59-1,4.12,4.12,0,0,1-.9-2.82V16.49a4.05,4.05,0,0,1,.9-2.84,3.32,3.32,0,0,1,2.59-1,3.39,3.39,0,0,1,2.61,1,4,4,0,0,1,.93,2.84V37.14a4.12,4.12,0,0,1-.9,2.82A3.36,3.36,0,0,1,121.16,41Z"/><path class="cls-2" d="M147.89,41.14a10.72,10.72,0,0,1-6.11-1.75,8.2,8.2,0,0,1-3.46-4.67l.62-1.41v4.11a3.7,3.7,0,0,1-.9,2.68,3.36,3.36,0,0,1-2.53.92,3.43,3.43,0,0,1-2.59-.92,3.7,3.7,0,0,1-.9-2.68V4a3.59,3.59,0,0,1,.9-2.65,3.5,3.5,0,0,1,2.59-.9,3.6,3.6,0,0,1,2.61.9A3.52,3.52,0,0,1,139.05,4V18.63h-.67a8.28,8.28,0,0,1,3.49-4.45,10.8,10.8,0,0,1,6-1.69,11.49,11.49,0,0,1,6.36,1.75,11.73,11.73,0,0,1,4.22,4.92A17.6,17.6,0,0,1,160,26.79a17.8,17.8,0,0,1-1.52,7.62,11.59,11.59,0,0,1-4.25,5A11.44,11.44,0,0,1,147.89,41.14Zm-2-5.35a6.28,6.28,0,0,0,6.1-4,12.3,12.3,0,0,0,.88-5c0-3-.64-5.25-1.92-6.73a6.34,6.34,0,0,0-5.06-2.22,6.81,6.81,0,0,0-3.66,1,6.46,6.46,0,0,0-2.45,3,12.49,12.49,0,0,0-.87,5q0,4.44,1.91,6.72A6.3,6.3,0,0,0,145.92,35.79Z"/><path class="cls-3" d="M169.27,7.43a4.44,4.44,0,0,1-3.07-1,3.46,3.46,0,0,1-1.09-2.73A3.45,3.45,0,0,1,166.2,1a5.44,5.44,0,0,1,6.17,0,3.5,3.5,0,0,1,1.07,2.75,3.52,3.52,0,0,1-1.07,2.73A4.42,4.42,0,0,1,169.27,7.43Z"/><path class="cls-2" d="M169.27,41a3.31,3.31,0,0,1-2.59-1,4.12,4.12,0,0,1-.9-2.82V16.49a4.05,4.05,0,0,1,.9-2.84,3.33,3.33,0,0,1,2.59-1,3.41,3.41,0,0,1,2.62,1,4,4,0,0,1,.93,2.84V37.14a4.12,4.12,0,0,1-.9,2.82A3.39,3.39,0,0,1,169.27,41Z"/><path class="cls-2" d="M192.74,41.14a13.54,13.54,0,0,1-6.11-1.24A8,8,0,0,1,183,36.27a13.29,13.29,0,0,1-1.18-5.94v-12h-2.93a2.88,2.88,0,0,1-2.08-.71,2.55,2.55,0,0,1-.73-1.94,2.54,2.54,0,0,1,.73-2,3,3,0,0,1,2.08-.67h2.93V7.93a3.51,3.51,0,0,1,.93-2.64,3.61,3.61,0,0,1,2.62-.9,3.49,3.49,0,0,1,2.58.9,3.58,3.58,0,0,1,.9,2.64v5.13h6a3,3,0,0,1,2.08.67,2.54,2.54,0,0,1,.73,2,2.55,2.55,0,0,1-.73,1.94,2.88,2.88,0,0,1-2.08.71h-6V29.94A6,6,0,0,0,190,34a4.82,4.82,0,0,0,3.82,1.35,7.72,7.72,0,0,0,1.69-.17,9.54,9.54,0,0,1,1.3-.22,1.3,1.3,0,0,1,1.12.42,3,3,0,0,1,.45,1.94,5.21,5.21,0,0,1-.36,2,2.16,2.16,0,0,1-1.33,1.21,14.63,14.63,0,0,1-1.91.42A13,13,0,0,1,192.74,41.14Z"/></g></g></svg>