<svg xmlns="http://www.w3.org/2000/svg" viewBox="0 0 95.59 135.9"><defs><style>.cls-1{fill:#f24131;}.cls-2{fill:#f1b808;}</style></defs><title>favicon</title><g id="Layer_2" data-name="Layer 2"><g id="Layer_1-2" data-name="Layer 1"><path class="cls-1" d="M13.07,135.9q-6.39,0-9.73-3.34T0,122.68V39.86Q0,33.17,3.34,29.6A11.52,11.52,0,0,1,12.16,26a13.67,13.67,0,0,1,7.6,1.82,28.51,28.51,0,0,1,6.07,6.08L74,94.11H69.75v-55q0-6.39,3.27-9.73T82.67,26q6.39,0,9.65,3.34t3.27,9.73v84.19q0,5.77-3,9.19a10.43,10.43,0,0,1-8.21,3.42q-5.16,0-8.13-1.9a28.38,28.38,0,0,1-6.3-6L21.73,67.67H26v55q0,6.54-3.27,9.88T13.07,135.9Z"/><circle class="cls-2" cx="83.82" cy="10.33" r="10.33"/></g></g></svg>